# xmcd CD database file
#
# Track frame offsets:
#	180
#	25750
#	54679
#	85389
#	108338
#	143033
#	162140
#	189626
#	203523
#	242877
#	260976
#
# Disc length: 3832 seconds
#
# Revision: 0
# Processed by: cddbd v1.5.2PL0 Copyright (c) Steve Scherf et al.
# Submitted via: CDex 1.81
#
DISCID=980ef60b
DTITLE=Herbert Christ and International New Orleans Jazzband featuring Freddy Lonzo - New Orleans Jazz - Live
DYEAR=1997
DGENRE=Jazz
TTITLE0=Bugle Boy March
TTITLE1=Go to New Orleans
TTITLE2=What a Fried we Have in Jesus
TTITLE3=I Want a Big Butter and Egg Man
TTITLE4=Button Blues
TTITLE5=Do What Ory Says
TTITLE6=St. James Infirmary
TTITLE7=Muskrat Ramble
TTITLE8=Careless Love
TTITLE9=Frankie and Johnny
TTITLE10=Yellow Dog Blues
EXTD=YEAR: 1997
EXTT0=
EXTT1=
EXTT2=
EXTT3=
EXTT4=
EXTT5=
EXTT6=
EXTT7=
EXTT8=
EXTT9=
EXTT10=
PLAYORDER=
